<?xml version="1.0" encoding="utf-8"?>
<!-- Generator: Adobe Illustrator 24.0.1, SVG Export Plug-In . SVG Version: 6.00 Build 0)  -->
<svg version="1.1" xmlns="http://www.w3.org/2000/svg" xmlns:xlink="http://www.w3.org/1999/xlink" x="0px" y="0px"
	 viewBox="0 0 595.28 841.89" style="enable-background:new 0 0 595.28 841.89;" xml:space="preserve">
<style type="text/css">
	.st0{fill:#FFFFFF;}
	.st1{fill:#E6E6E6;}
	.st2{opacity:0.75;fill:#F7931E;}
	.st3{opacity:0.75;fill:#8CC63F;}
	.st4{fill:#FBB03B;}
	.st5{fill:#FBD218;}
	.st6{font-family:'Roboto-Bold';}
	.st7{font-size:128.7211px;}
	.st8{font-size:163.5196px;}
	.st9{font-size:35.9394px;}
	.st10{font-size:148.95px;}
	.st11{font-size:77.3014px;}
</style>
<g id="Layer_2">
	<rect class="st0" width="595.28" height="841.89"/>
</g>
<g id="Layer_1">
	<path class="st1" d="M454.6,157.82l74.26-74.26c2.04-2.04,2.04-5.34,0-7.37l-22.34-22.34c-2.04-2.04-5.34-2.04-7.37,0l-74.27,74.27
		c-16.58-11.77-39.7-10.23-54.56,4.63L31.75,471.3c-5.15,5.15-5.15,13.51,0,18.67l61.06,61.06c5.15,5.15,13.51,5.15,18.67,0
		l338.56-338.56C464.92,197.58,466.44,174.4,454.6,157.82z"/>
	<path class="st2" d="M93.45,532.74l-46.96-46.96c-5.15-5.15-5.15-13.51,0-18.67l135.13-121.92c16.58-16.58,34.95-24.95,51.53-8.37
		l3.23-1.28c12.4-4.93,25.64-7.06,38.99-7.22c14.15-0.17,28.26-19.74,28.26,12.91L112.11,532.74
		C106.96,537.9,98.6,537.9,93.45,532.74z"/>
	<ellipse class="st0" cx="397.45" cy="138.3" rx="18.38" ry="8.1"/>
	<path class="st0" d="M495.84,70.05l-1.8-1.8c-0.96-0.96-2.53-0.96-3.49,0l-56.68,56.68c-0.96,0.96-0.96,2.53,0,3.49l1.8,1.8
		c0.96,0.96,2.53,0.96,3.49,0l56.68-56.68C496.8,72.58,496.8,71.01,495.84,70.05z"/>
	<path class="st0" d="M148.04,376.62l-1.8-1.8c-0.96-0.96-2.53-0.96-3.49,0L86.07,431.5c-0.96,0.96-0.96,2.53,0,3.49l1.8,1.8
		c0.96,0.96,2.53,0.96,3.49,0l56.68-56.68C149,379.15,149,377.59,148.04,376.62z"/>
	<path class="st1" d="M495.61,587.56l39.22-25.26c1.08-0.69,1.39-2.13,0.69-3.2l-7.6-11.8c-0.69-1.08-2.13-1.39-3.2-0.69
		l-39.23,25.26c-6.09-6.67-16.28-8.18-24.12-3.12L282.56,683.91c-2.72,1.75-3.51,5.38-1.75,8.1l20.77,32.25
		c1.75,2.72,5.38,3.51,8.1,1.75l178.81-115.16C496.35,605.8,499.19,595.88,495.61,587.56z"/>
	<path class="st3" d="M304.92,716.68l-15.97-24.8c-1.75-2.72-0.97-6.35,1.75-8.1l70.13-40.23c8.76-5.64,17.52-7.55,23.16,1.21
		l1.52-0.25c5.85-0.97,11.8-0.65,17.6,0.53c6.16,1.26,14.12-5.91,11.06,8.26l-101.15,65.14C310.3,720.19,306.68,719.4,304.92,716.68
		z"/>
	
		<ellipse transform="matrix(0.2116 -0.9774 0.9774 0.2116 -187.3298 915.7875)" class="st0" cx="473.98" cy="574.01" rx="3.6" ry="8.16"/>
	<path class="st0" d="M523.11,553.63l-0.61-0.95c-0.33-0.51-1.01-0.66-1.51-0.33l-29.93,19.28c-0.51,0.33-0.66,1.01-0.33,1.51
		l0.61,0.95c0.33,0.51,1.01,0.66,1.51,0.33l29.93-19.28C523.29,554.82,523.44,554.14,523.11,553.63z"/>
	<path class="st0" d="M343.3,654.03l-0.61-0.95c-0.33-0.51-1.01-0.66-1.51-0.33l-29.93,19.28c-0.51,0.33-0.66,1.01-0.33,1.51
		l0.61,0.95c0.33,0.51,1.01,0.66,1.51,0.33l29.93-19.28C343.48,655.22,343.63,654.54,343.3,654.03z"/>
	<path class="st4" d="M218.23,109.55l8.18,5.63l0.06-0.08c4.49,1.72,13.72-5.22,21.29-16.22s10.76-22.1,7.55-25.68l0.06-0.08
		l-8.18-5.63L218.23,109.55z"/>
	
		<ellipse transform="matrix(0.567 -0.8237 0.8237 0.567 27.8598 230.0223)" class="st5" cx="232.71" cy="88.51" rx="25.54" ry="9.14"/>
	<path class="st4" d="M219.56,537.96l-2.82,4.09l0.08,0.06c-0.39,2.56,7.59,10.29,18.59,17.86s21.06,12.27,23.32,10.99l0.08,0.06
		l2.82-4.09L219.56,537.96z"/>
	
		<ellipse transform="matrix(0.567 -0.8237 0.8237 0.567 -350.881 437.4209)" class="st5" cx="240.6" cy="552.44" rx="4.57" ry="25.54"/>
	<path class="st4" d="M423.12,746.27l9.79,6.74l0.06-0.08c5.25,2.24,15.07-4.3,22.64-15.3c7.57-11,10.17-22.51,6.2-26.61l0.06-0.08
		l-9.79-6.74L423.12,746.27z"/>
	
		<ellipse transform="matrix(0.567 -0.8237 0.8237 0.567 -407.9073 674.5219)" class="st5" cx="437.6" cy="725.23" rx="25.54" ry="10.93"/>
	<path class="st4" d="M485.5,252.16l-3.35,9.17l0.1,0.04c-0.51,4.7,8.54,11.84,21.08,16.42c12.54,4.58,24.07,4.95,26.7,1.03
		l0.1,0.04l3.35-9.17L485.5,252.16z"/>
	
		<ellipse transform="matrix(0.343 -0.9393 0.9393 0.343 89.6275 649.9943)" class="st5" cx="509.49" cy="260.92" rx="8.98" ry="25.54"/>
	<path class="st4" d="M213.14,803.78l-3.06,3.03l-0.07-0.07c-2.24,0.62-11.07-6.04-20.47-15.53c-9.4-9.49-15.97-18.39-15.33-20.62
		l-0.07-0.07l3.06-3.03L213.14,803.78z"/>
	
		<ellipse transform="matrix(0.7106 -0.7036 0.7036 0.7106 -496.3079 364.7088)" class="st5" cx="195.16" cy="785.64" rx="3.96" ry="25.54"/>
	<path class="st4" d="M100.17,276.43l2.73,4.15l0.09-0.06c2.23,1.33,12.39-3.14,23.55-10.47s19.31-14.87,18.98-17.44l0.09-0.06
		l-2.73-4.15L100.17,276.43z"/>
	
		<ellipse transform="matrix(0.836 -0.5487 0.5487 0.836 -124.0696 109.7249)" class="st5" cx="121.53" cy="262.42" rx="25.54" ry="4.57"/>
	<path class="st4" d="M477.36,532.02l3.18,2.91l-0.07,0.08c0.73,2.2-5.5,11.35-14.52,21.2c-9.02,9.84-17.6,16.84-19.85,16.31
		l-0.07,0.08l-3.18-2.91L477.36,532.02z"/>
	
		<ellipse transform="matrix(0.6757 -0.7372 0.7372 0.6757 -256.8614 517.8151)" class="st5" cx="460.1" cy="550.85" rx="25.54" ry="3.96"/>
	<g>
		<text transform="matrix(0.9855 0 0 1 140.3586 232.5017)" class="st6 st7">Happy</text>
	</g>
	<text transform="matrix(0.9855 0 0 1 139.303 369.196)" class="st6 st8">Hour</text>
	<g>
		<text transform="matrix(1 0 0 1 145.1179 449.5168)" class="st6 st9">toute la </text>
	</g>
	<g>
		<text transform="matrix(0.9855 0 0 1 275.303 495.7609)" class="st6 st10">nuit </text>
	</g>
	<rect x="135.49" y="397.74" width="292.09" height="12.82"/>
	<text transform="matrix(0.9855 0 0 1 530.447 440.07)" class="st6 st11">*</text>
</g>
</svg>
