<?xml version="1.0" encoding="utf-8"?>
<!-- Generator: Adobe Illustrator 24.0.1, SVG Export Plug-In . SVG Version: 6.00 Build 0)  -->
<svg version="1.1" id="Layer_1" xmlns="http://www.w3.org/2000/svg" xmlns:xlink="http://www.w3.org/1999/xlink" x="0px" y="0px"
	 viewBox="0 0 759 361" style="enable-background:new 0 0 759 361;" xml:space="preserve">
<style type="text/css">
	.st0{fill:#FFFFFF;}
	.st1{fill:none;stroke:#FFFFFF;stroke-width:9;stroke-miterlimit:10;}
</style>
<g>
	<g>
		<path class="st0" d="M76.8,153.9c-9.6,0-18.5-1.8-26.5-5.3c-8.1-3.5-15.1-8.5-21-14.9c-5.9-6.4-10.5-13.8-13.7-22.4
			c-3.2-8.6-4.8-17.9-4.8-28v-2.2c0-10,1.6-19.3,4.8-27.8c3.2-8.5,7.8-16,13.7-22.4c5.9-6.4,12.9-11.3,20.9-14.9
			c8-3.6,16.9-5.4,26.5-5.4c9.4,0,18.2,1.8,26.3,5.4c8.1,3.6,15.2,8.5,21.3,14.9c6.1,6.4,10.8,13.8,14.2,22.4
			c3.4,8.5,5.1,17.8,5.1,27.8v2.2c0,10.1-1.7,19.4-5.1,28c-3.4,8.6-8.1,16-14.1,22.4c-6.1,6.4-13.1,11.3-21.2,14.9
			C94.9,152.1,86.2,153.9,76.8,153.9z M76.8,128.5c7,0,13-1.9,18-5.6c5-3.8,8.8-9,11.4-15.8c2.6-6.8,3.9-14.7,3.9-23.7V81
			c0-8.9-1.3-16.6-4-23.4c-2.6-6.7-6.5-12-11.4-15.7c-5-3.8-11-5.6-18.1-5.6c-7.5,0-13.6,1.8-18.3,5.5c-4.7,3.7-8.3,8.9-10.6,15.6
			C45.5,64,44.3,71.9,44.3,81v2.4c0,9.1,1.2,17,3.5,23.8c2.3,6.8,5.9,12,10.7,15.8C63.4,126.6,69.5,128.5,76.8,128.5z"/>
		<path class="st0" d="M189.9,151.9l-27.8-81.8l-11.5-1.9V48.5H205V68l-9.3,1.9l11,39.5l2.1,7.8h0.6l2.6-7.8l14.4-39.4l-11.9-2V48.5
			h54.3v19.7L257,70.4l-31.4,81.4H189.9z"/>
		<path class="st0" d="M326.7,153.9c-10.1,0-19-2.2-26.5-6.5c-7.6-4.4-13.4-10.3-17.6-17.9c-4.2-7.6-6.3-16.2-6.3-25.7v-3.5
			c0-10.5,1.8-19.8,5.5-27.9c3.7-8.1,9.1-14.4,16.3-19c7.1-4.6,15.9-6.8,26.3-6.7c9.4,0,17.3,1.8,23.8,5.4
			c6.5,3.6,11.4,8.9,14.8,15.9c3.4,7,5.1,15.6,5.1,25.8v17.3h-56.9l-0.1,0.7c0.5,3.3,1.6,6.1,3.3,8.7c1.7,2.5,4,4.5,7,6
			c3,1.5,6.7,2.2,11.1,2.2c4.3,0,8.6-0.5,12.8-1.5c4.2-1,8.6-2.6,13.2-4.7l7.6,20.3c-4.7,3.3-10.3,6.1-17,8.2
			C342.4,152.8,335,153.9,326.7,153.9z M311.2,90.1h26.3v-2.5c0-3.7-0.4-6.8-1.1-9.3c-0.7-2.5-2-4.4-3.8-5.6
			c-1.8-1.3-4.2-1.9-7.4-1.9c-3.4,0-6.1,0.8-8.1,2.4c-2,1.6-3.5,3.9-4.4,6.7c-0.9,2.8-1.6,6.1-2,9.7L311.2,90.1z"/>
		<path class="st0" d="M383.4,151.9v-19.6l12-3.1v-58l-14.3-3.1V48.5h46l0.8,12.6l0.2,2.6c2.3-5.9,5.1-10.2,8.6-13
			c3.4-2.8,7.7-4.2,12.8-4.2c1.4,0,3.1,0.1,5,0.3c1.9,0.2,3.9,0.6,5.8,1.2l-3.3,30.8l-14.3-0.7c-3.3-0.1-5.9,0.2-7.8,1.1
			c-1.9,0.9-3.8,2.3-5.7,4.3v45.7l12,3.1v19.6H383.4z"/>
	</g>
</g>
<g>
	<g>
		<path class="st0" d="M239.7,332.6v-21.6l15.9-3.4V204l-15.9-3.4v-21.7h126.5v45.3h-28l-0.7-16.8h-44.8V243h52.2v28.3h-52.2v36.3
			l15.9,3.4v21.6H239.7z"/>
		<path class="st0" d="M373.4,332.6v-21.6l13.5-3.4V193.1l-16-3.4V168H424v139.6l13.4,3.4v21.6H373.4z"/>
		<path class="st0" d="M500.7,334.8c-11.7,0-21.8-2.4-30.1-7.3c-8.3-4.9-14.7-11.7-19.1-20.5c-4.4-8.8-6.6-18.9-6.6-30.4v-2.1
			c0-11.4,2.2-21.5,6.6-30.2c4.4-8.7,10.7-15.6,19-20.5c8.3-5,18.3-7.4,30-7.4c11.7,0,21.8,2.5,30,7.4c8.3,4.9,14.6,11.7,19,20.5
			c4.4,8.7,6.6,18.8,6.6,30.3v2.1c0,11.5-2.2,21.6-6.6,30.3c-4.4,8.8-10.7,15.6-19,20.5C522.2,332.3,512.3,334.8,500.7,334.8z
			 M500.7,306.6c4.5,0,8.1-1.2,10.8-3.6c2.7-2.4,4.7-5.9,5.9-10.4c1.2-4.5,1.8-9.8,1.8-16v-2.1c0-6-0.6-11.2-1.8-15.7
			c-1.2-4.5-3.2-7.9-6-10.4c-2.7-2.5-6.4-3.7-11-3.7c-4.5,0-8.1,1.2-10.9,3.7c-2.7,2.5-4.7,6-5.9,10.4c-1.2,4.5-1.8,9.7-1.8,15.7
			v2.1c0,6.3,0.6,11.6,1.8,16.1c1.2,4.5,3.2,8,5.9,10.3C492.3,305.4,496,306.6,500.7,306.6z"/>
		<path class="st0" d="M603.7,332.6l-24.4-89.2l-14.7-3.3v-21.7h60.1V240l-10.8,2.3l7.4,36.6l1.2,5.8h0.6l1.8-5.8l22.5-60.6h22.7
			l22.2,62.1l1.6,5.1h0.6l1.4-5.1l10.2-38l-12.7-2.5v-21.6h59v21.7l-13.7,3.1L710,332.6h-29.8l-19.5-49.1l-2.6-9h-0.6l-2.5,9.1
			l-18,49H603.7z"/>
	</g>
</g>
<line id="rec2" class="st1" x1="401.1" y1="109.5" x2="648" y2="109.5"/>
<line id="rec1" class="st1" x1="99.2" y1="257.6" x2="274.3" y2="257.6"/>
</svg>
