<?xml version="1.0" encoding="utf-8"?>
<!-- Generator: Adobe Illustrator 24.0.1, SVG Export Plug-In . SVG Version: 6.00 Build 0)  -->
<svg version="1.1" id="Layer_1" xmlns="http://www.w3.org/2000/svg" xmlns:xlink="http://www.w3.org/1999/xlink" x="0px" y="0px"
	 viewBox="0 0 144 98" style="enable-background:new 0 0 144 98;" xml:space="preserve">
<g>
	<polygon points="47.9,52 47.9,56.5 51.9,58.8 55.8,56.5 55.8,52 51.9,49.7 	"/>
	<path d="M26.5,35.2c-10.4,0-18.8,8.6-18.8,19.3c0,10.6,8.4,19.3,18.8,19.3c7.9,0,14.6-5,17.4-12.1H33.2c-1.2,2.3-3.5,3.8-6.1,3.8
		c-3.9,0-7.1-3.4-7.1-7.6h11.9h2.2h10.8c0.2-1.1,0.3-2.2,0.3-3.4C45.2,43.8,36.8,35.2,26.5,35.2z M19.9,50.7c0-3.9,3.2-7.1,7.1-7.1
		s7.1,3.2,7.1,7.1H19.9z"/>
	<path d="M91,66.1v-22c0,0-1-8.1-10.1-8.1C71.7,36,70,36,70,36s-11,0.2-11,11.8h10c0,0-0.5-4.2,6.1-4.2c6.6,0,5.6,4.2,5.6,4.2
		s-0.2,3.7-10,3.7s-13.3,5.9-13.3,10.8s1.5,11.3,13.7,11.3c0.5,0,4.5,0.4,9.6-4.7v4.7h12.5C93.2,73.7,91,72.3,91,66.1z M79.8,62
		c0,0-1.5,4.1-5.7,4.1s-5.4-1.9-5.4-3.5s0-5.1,5.6-5.1c5.6,0,5.6-1.5,5.6-1.5V62z"/>
	<path d="M135.9,45.3V36h-7.3V25.2h-10.5V36h-5.7c0,0-7.3,0.8-7.3,7.6V36H94.5v37.7h10.6V54.4c0,0,1.7-9.1,6.9-9.1s5.2,0,5.2,0v20.3
		c0,0-1,8.2,8.2,8.2s10.4,0,10.4,0v-9.2h-4.4c0,0-2.9,0-2.9-2.9s0-16.4,0-16.4H135.9z"/>
</g>
</svg>
