<?xml version="1.0" encoding="utf-8"?>
<!-- Generator: Adobe Illustrator 24.0.1, SVG Export Plug-In . SVG Version: 6.00 Build 0)  -->
<svg version="1.1" id="Layer_1" xmlns="http://www.w3.org/2000/svg" xmlns:xlink="http://www.w3.org/1999/xlink" x="0px" y="0px"
	 viewBox="0 0 144 98" style="enable-background:new 0 0 144 98;" xml:space="preserve">
<path d="M141.7,1.6L2,39v40.8h71.8l-20,13.5l87.9-13.5V39H87.6L141.7,1.6z M108.1,44.1c6.8,0,12.5,3.8,14.9,9.3h-7.3
	c-1.7-2.6-4.6-4.3-7.9-4.3c-5.3,0-9.6,4.4-9.6,9.7s4.3,9.7,9.6,9.7c4.1,0,7.5-2.6,8.9-6.2h-10.9v-4.5h11.5h6.8h0v1.3
	c0,0.1,0,0.2,0,0.3c-0.4,7.9-7.4,14.1-16,14.1c-8.9,0-16.1-6.6-16.1-14.8C92.1,50.7,99.3,44.1,108.1,44.1z M27.9,73.1h-6.2V44.4h6.2
	V73.1z M46.2,73.9c-9.6,0-9.3-9.6-9.3-9.6h6.2c0,1.4,0.3,4.5,3.9,4.5c3.7,0,3.9-2.3,3.9-4.5c0-2.3-8.4-4.8-8.4-4.8
	C36.9,57,37.5,52,37.5,52s0-8.2,9.6-8.2s9.9,8.7,9.9,8.7h-6.2c0-3.4-2.8-3.4-3.7-3.4s-3.4,0.3-3.4,2.8c0,2.5,2,2.8,6.5,4.8
	s7,4.5,7,8.2S55.8,73.9,46.2,73.9z M82.9,61.3H72.4v6.9h10.5v5.1H72.4h-6.2v-5.1V49.6v-5.1h16.7v5.1H72.4v6.6h10.5V61.3z"/>
</svg>
