<?xml version="1.0" encoding="utf-8"?>
<!-- Generator: Adobe Illustrator 24.0.1, SVG Export Plug-In . SVG Version: 6.00 Build 0)  -->
<svg version="1.1" id="Layer_1" xmlns="http://www.w3.org/2000/svg" xmlns:xlink="http://www.w3.org/1999/xlink" x="0px" y="0px"
	 viewBox="0 0 144 98" style="enable-background:new 0 0 144 98;" xml:space="preserve">
<g>
	<path d="M61.7,24.9C53.6,25.1,47.1,32.6,47,42c0,4,1.1,7.7,3,10.6c-2,2.9-3.2,6.6-3.2,10.6c-0.1,9.4,6.3,17.1,14.4,17.4v0l33.1,0.3
		l0.1-11.8l-30.8-0.3l0,0c-2.1-0.1-3.8-2.3-3.8-5s1.7-4.8,3.8-4.9l0,0l30.8,0.3l0.1-12.3l-30.8-0.3l0,0c-2.1-0.1-3.8-2.3-3.8-5
		c0-2.7,1.7-4.8,3.8-4.9l0,0L94.7,37l0.1-11.9L61.7,24.9L61.7,24.9z"/>
	<path d="M37.5,89l0.3-28.7c0-2.3-1.4-4.6-3.9-6.1c-1.3-0.8-3-1.5-5.1-1.6c2.1-0.1,3.8-0.8,5.2-1.5c2.6-1.5,4-3.7,4-6l0.3-28.7
		c0-4.2,9.1-3.5,9.1-3.5l0-2.8c0,0,0,0-9.1-0.1c-9.1-0.1-8.8,5.6-8.8,5.6s0,16-0.1,27.2c-0.1,8.8-6,9.7-7.7,9.8c-0.1,0-0.1,0-0.2,0
		c0,0,0.1,0,0.1,0c0,0-0.1,0-0.1,0c0.1,0,0.1,0,0.2,0c1.7,0.1,7.6,1.1,7.5,9.9c-0.1,11.2-0.3,27.2-0.3,27.2s-0.4,5.7,8.7,5.8
		c9.1,0.1,9.1,0.1,9.1,0.1l0-2.8C46.5,92.7,37.4,93.2,37.5,89z"/>
	<path d="M122.3,53.3c-0.1,0-0.1,0-0.2,0c-1.7-0.1-7.6-1.1-7.5-9.9c0.1-11.2,0.3-27.2,0.3-27.2s0.4-5.7-8.7-5.8s-9.1-0.1-9.1-0.1
		l0,2.8c0,0,9.1-0.5,9.1,3.7l-0.3,28.7c0,2.3,1.4,4.6,3.9,6.1c1.3,0.8,3,1.5,5.1,1.6c-2.1,0.1-3.8,0.8-5.2,1.5c-2.6,1.5-4,3.7-4,6
		l-0.3,28.7c0,4.2-9.1,3.5-9.1,3.5l0,2.8c0,0,0,0,9.1,0.1s8.8-5.6,8.8-5.6s0-16,0.1-27.2c0.1-8.8,6-9.7,7.7-9.8
		C122.2,53.3,122.3,53.3,122.3,53.3C122.3,53.3,122.2,53.3,122.3,53.3C122.2,53.3,122.3,53.3,122.3,53.3z"/>
</g>
</svg>
